<?xml version="1.0" encoding="UTF-8"?>
<svg xmlns="http://www.w3.org/2000/svg" viewBox="0 0 392.26 279.45">
  <defs>
    <style>
      .cls-1 {
        fill: #e9c246;
      }

      .cls-2 {
        fill: #d8b441;
      }
    </style>
  </defs>
  <g id="Layer_2" data-name="Layer 2">
    <polygon class="cls-1" points="166.2 237.72 221.17 237.72 232.68 190.14 155.23 190.14 166.2 237.72"/>
  </g>
  <g id="Layer_1" data-name="Layer 1">
    <path class="cls-1" d="M26.87,83.78s-2.11,170.88,139.76,143.53c0,0,15.89-140.94-139.76-143.53Z"/>
    <path class="cls-2" d="M121.41,18.53S30.34,163.13,165.6,213.93c0,0,87.18-111.87-44.18-195.4Z"/>
    <path class="cls-1" d="M361.36,83.78s2.11,170.88-139.76,143.53c0,0-15.89-140.94,139.76-143.53Z"/>
    <path class="cls-2" d="M266.49,18.53s91.07,144.6-44.18,195.4c0,0-87.18-111.87,44.18-195.4Z"/>
    <path class="cls-1" d="M193.95,0s-109.9,110.36,0,222.97c0,0,99.11-100.9,0-222.97Z"/>
    <path class="cls-1" d="M191.55,248.65s-20.82-18.02-94.58,0S1.6,157.03,1.6,157.03c0,0-10.36,68.2,21.62,109.64s116.84-32.43,168.33-18.02Z"/>
    <path class="cls-1" d="M200.71,248.65s20.82-18.02,94.58,0c73.75,18.02,95.38-91.62,95.38-91.62,0,0,10.36,68.2-21.62,109.64-31.98,41.44-116.84-32.43-168.33-18.02Z"/>
  </g>
</svg>